<svg width="119" height="26" viewBox="0 0 119 26" fill="none" xmlns="http://www.w3.org/2000/svg">
<path d="M46.1186 20.5572L40.6345 4.54791H35.4841L30 20.5572H32.8359L34.3581 15.965H41.7605L43.2827 20.5572H46.1186ZM38.0697 4.88495L40.989 13.6479H35.1296L38.0697 4.88495Z" fill="black"/>
<path d="M49.5882 9.20323H47.0025V20.5572H49.609V14.1956C49.609 12.2155 50.5891 11.5414 52.6117 11.5414H53.3207V8.95045C51.1521 8.95045 50.0261 10.2565 49.5882 11.9627V9.20323Z" fill="black"/>
<path d="M59.343 20.8099C62.0329 20.8099 64.1806 19.3354 64.7437 16.6391H62.1163C61.6993 18.1136 60.8235 18.9562 59.343 18.9562C57.4663 18.9562 56.3611 17.3974 56.3611 14.8697C56.3611 12.384 57.4455 10.8042 59.343 10.8042C60.8443 10.8042 61.6993 11.8574 61.9912 13.1634H64.6394C64.1598 10.6356 62.2206 8.95045 59.343 8.95045C55.965 8.95045 53.7129 11.3308 53.7129 14.8697C53.7129 18.4085 55.9441 20.8099 59.343 20.8099Z" fill="black"/>
<path d="M72.3475 8.95045C70.4082 8.95045 69.3031 10.1301 68.7818 11.5204V4.54791H66.1961V20.5572H68.8026V13.9639C68.8026 11.7942 69.7201 10.8252 71.1797 10.8252C72.6602 10.8252 73.5569 11.7731 73.5569 13.9217V13.9639V20.5572H76.1634V13.4583V13.4162C76.1634 10.8884 74.9331 8.95045 72.3475 8.95045Z" fill="black"/>
<path d="M90.5353 20.2833L88.6586 9.20323H84.0295L82.1528 20.2833L79.8174 9.20323H77.3777L79.7965 20.5572H84.5091L86.344 9.45601L88.179 20.5572H92.8916L95.3104 9.20323H92.8707L90.5353 20.2833Z" fill="black"/>
<path d="M101.262 8.95045C98.5094 8.95045 96.591 10.3618 96.3199 12.5947H98.9473C99.0932 11.6467 99.8648 10.8042 101.262 10.8042C102.826 10.8042 103.576 11.8785 103.576 13.2055V13.2477V13.3951L100.595 13.7111C98.4677 13.9217 95.9446 14.4905 95.9446 17.1236C95.9446 19.2722 97.6544 20.8099 99.7813 20.8099C101.929 20.8099 102.888 19.7988 103.597 18.3032V20.5572H106.183V13.353V13.3109C106.183 10.9937 104.723 8.95045 101.262 8.95045ZM100.782 19.1458C99.5937 19.1458 98.5928 18.4085 98.5928 17.1236C98.5928 15.6491 100.136 15.4384 101.554 15.2699L103.576 15.0592V15.7333C103.576 17.6291 102.638 19.1458 100.782 19.1458Z" fill="black"/>
<path d="M112.873 18.9562L109.453 9.20323H106.826L110.433 19.3354H112.748L111.1 24.6859H113.79L118.607 9.20323H115.875L112.873 18.9562Z" fill="black"/>
<path d="M0 12.596C0 5.91556 5.37258 0.5 12 0.5C18.6274 0.5 24 5.91556 24 12.596V24.488C23.9935 17.8661 18.6234 12.5 12 12.5C5.37259 12.5 1.17187e-05 17.8726 1.17187e-05 24.5L0 12.596Z" fill="black"/>
</svg>
